<?xml version="1.0" encoding="UTF-8" standalone="no"?>
<svg
   xmlns:dc="http://purl.org/dc/elements/1.1/"
   xmlns:cc="http://creativecommons.org/ns#"
   xmlns:rdf="http://www.w3.org/1999/02/22-rdf-syntax-ns#"
   xmlns:svg="http://www.w3.org/2000/svg"
   xmlns="http://www.w3.org/2000/svg"
   xmlns:sodipodi="http://sodipodi.sourceforge.net/DTD/sodipodi-0.dtd"
   xmlns:inkscape="http://www.inkscape.org/namespaces/inkscape"
   width="793.70081"
   height="1122.5197"
   viewBox="0 0 210 297"
   version="1.1"
   id="svg8"
   inkscape:version="1.0.1 (0767f8302a, 2020-10-17)"
   sodipodi:docname="mylogo.svg">
  <defs
     id="defs2" />
  <sodipodi:namedview
     id="base"
     pagecolor="#ffffff"
     bordercolor="#666666"
     borderopacity="1.0"
     inkscape:pageopacity="0.0"
     inkscape:pageshadow="2"
     inkscape:zoom="0.24748737"
     inkscape:cx="246.71362"
     inkscape:cy="975.88425"
     inkscape:document-units="mm"
     inkscape:current-layer="layer1"
     inkscape:document-rotation="0"
     showgrid="false"
     units="px"
     showborder="false"
     showguides="false"
     inkscape:window-width="1920"
     inkscape:window-height="1025"
     inkscape:window-x="0"
     inkscape:window-y="27"
     inkscape:window-maximized="1" />
  <metadata
     id="metadata5">
    <rdf:RDF>
      <cc:Work
         rdf:about="">
        <dc:format>image/svg+xml</dc:format>
        <dc:type
           rdf:resource="http://purl.org/dc/dcmitype/StillImage" />
        <dc:title></dc:title>
      </cc:Work>
    </rdf:RDF>
  </metadata>
  <g
     inkscape:label="Layer 1"
     inkscape:groupmode="layer"
     id="layer1">
    <g
       id="g903"
       style="opacity:0.388093"
       transform="translate(-12.467528,204.79296)">
      <path
         id="path911"
         style="color:#000000;font-style:normal;font-variant:normal;font-weight:normal;font-stretch:normal;font-size:medium;line-height:normal;font-family:sans-serif;font-variant-ligatures:normal;font-variant-position:normal;font-variant-caps:normal;font-variant-numeric:normal;font-variant-alternates:normal;font-variant-east-asian:normal;font-feature-settings:normal;font-variation-settings:normal;text-indent:0;text-align:start;text-decoration:none;text-decoration-line:none;text-decoration-style:solid;text-decoration-color:#000000;letter-spacing:normal;word-spacing:normal;text-transform:none;writing-mode:lr-tb;direction:ltr;text-orientation:mixed;dominant-baseline:auto;baseline-shift:baseline;text-anchor:start;white-space:normal;shape-padding:0;shape-margin:0;inline-size:0;clip-rule:nonzero;display:inline;overflow:visible;visibility:visible;opacity:1;isolation:auto;mix-blend-mode:normal;color-interpolation:sRGB;color-interpolation-filters:linearRGB;solid-color:#000000;solid-opacity:1;vector-effect:none;fill:#000000;fill-opacity:1;fill-rule:nonzero;stroke:none;stroke-width:13;stroke-linecap:butt;stroke-linejoin:round;stroke-miterlimit:4;stroke-dasharray:none;stroke-dashoffset:0;stroke-opacity:1;paint-order:stroke fill markers;color-rendering:auto;image-rendering:auto;shape-rendering:auto;text-rendering:auto;enable-background:accumulate;stop-color:#000000;stop-opacity:1"
         d="m 415.81836,-295.06445 c -66.10537,0.12397 -131.58593,12.5972 -192.95508,36.7539 -7.37922,2.90773 -12.25278,10.08814 -12.22461,18.01953 0.13253,38.41875 4.66806,76.30811 13.28516,113.04493 h 13.36914 c -8.85045,-36.7147 -13.51382,-74.63 -13.64649,-113.08985 -0.009,-2.61512 1.55327,-4.92408 3.98633,-5.88281 59.85047,-23.55891 123.71934,-35.71708 188.20117,-35.83984 h 0.0137 0.008 0.96094 c 64.81345,-2.6e-4 129.02343,12.16012 189.18164,35.83984 2.42536,0.95572 3.98655,3.25445 3.98633,5.86133 v 0.13281 c 0,38.40444 -4.52101,76.28174 -13.22071,112.97852 h 13.35938 c 8.47372,-36.73222 12.8672,-74.59949 12.86718,-112.97852 v -0.13281 c 7.6e-4,-7.90732 -4.86588,-15.0542 -12.22265,-17.95313 -61.67993,-24.2787 -127.51293,-36.75416 -193.95313,-36.7539 h -0.95898 -0.0234 a 6.5006498,6.5006498 0 0 0 -0.0137,0 z m 0.0215,25.58593 c -59.83282,0.11597 -118.99339,11.1964 -174.83203,31.99219 a 6.5006498,6.5006498 0 0 0 -4.22851,6.23828 c 0.8031,35.38365 5.5318,70.22858 13.9082,104.00196 h 13.64453 c -8.25614,-32.31468 -13.07513,-65.66084 -14.19336,-99.55079 53.09354,-19.19626 109.09432,-29.56449 165.7168,-29.67578 h 0.0156 0.0156 0.92969 c 56.96859,-2.3e-4 113.31963,10.3777 166.73437,29.69727 -0.98735,33.86698 -5.67159,67.20674 -13.79297,99.5293 h 13.62891 c 8.24143,-33.7915 12.83371,-68.63947 13.50195,-104.00977 a 6.5006498,6.5006498 0 0 0 -4.22851,-6.21484 c -56.15672,-20.919 -115.66831,-32.00805 -175.84375,-32.00782 h -0.93164 -0.0293 a 6.5006498,6.5006498 0 0 0 -0.0137,0 z M 268.23828,-8.2363281 C 301.38754,55.122063 348.02562,111.75886 406.0293,157.36328 c 7.00505,5.50445 16.96891,5.47296 23.93945,-0.0742 C 487.43583,111.56315 533.58118,54.96851 566.32812,-8.2363281 H 551.64258 C 519.9525,50.943777 476.09243,103.98009 421.87891,147.11719 a 6.5006498,6.5006498 0 0 0 -0.006,0 c -2.31103,1.84043 -5.48758,1.85469 -7.81055,0.0293 C 359.35081,104.1306 315.03103,51.070623 282.95703,-8.2363281 Z m 29.5918,0 C 327.07152,43.95153 366.17017,90.992098 413.78125,130.13867 a 6.5006498,6.5006498 0 0 0 8.2832,-0.0215 C 469.2304,90.873239 507.91406,43.848277 536.80469,-8.2363281 H 521.59766 C 494.82416,38.270147 459.92005,80.475544 417.87891,116.29883 375.44046,80.562137 340.16976,38.349479 313.07617,-8.2363281 Z"
         transform="matrix(0.26458333,0,0,0.26458333,-1.0674468,-4.7100545)" />
    </g>
    <g
       aria-label="DERRAPHICS"
       transform="matrix(0.70034419,0,0,0.97372802,11.7975,206.65566)"
       id="text878"
       style="font-style:normal;font-variant:normal;font-weight:normal;font-stretch:normal;font-size:34.3382px;line-height:1.25;font-family:Likhan;-inkscape-font-specification:'Likhan, Normal';font-variant-ligatures:normal;font-variant-caps:normal;font-variant-numeric:normal;font-variant-east-asian:normal;fill:#000000;fill-opacity:1;stroke:none;stroke-width:0.85846">
      <path
         d="m 18.777232,-18.284677 v -15.257696 q 0,-1.710203 -0.352101,-2.246738 -0.385634,-0.553301 -1.693436,-0.737734 -0.385634,-0.0503 -0.972469,-0.100601 v -0.653901 h 9.271985 q 6.505479,0 10.093552,2.967706 0.368868,0.3018 0.687435,0.637134 2.615605,2.649139 2.883872,6.80728 0.03353,0.419168 0.03353,0.855102 0,3.973708 -2.179671,6.941413 -0.586835,0.804802 -1.324569,1.47547 -2.380872,2.129371 -6.572546,2.800039 -1.52577,0.2515 -3.15214,0.2515 h -9.741452 v -0.653901 q 1.861104,-0.117367 2.414405,-0.603601 0.553301,-0.503001 0.603601,-1.978471 0,-0.234734 0,-0.503001 z m 3.50424,-16.381065 v 17.437367 q 0,0.972469 0.570068,1.240736 0.368867,0.167667 1.207202,0.167667 3.839574,0 6.103079,-1.073069 0.318567,-0.1509 0.637134,-0.335334 4.191675,-2.431171 4.191675,-8.551016 0,-5.097077 -3.35334,-7.947416 -0.352101,-0.3018 -0.737735,-0.570067 -2.431171,-1.710204 -6.840813,-1.710204 -1.274269,0 -1.57607,0.435934 -0.2012,0.285034 -0.2012,0.905402 z"
         style="font-style:normal;font-variant:normal;font-weight:normal;font-stretch:normal;font-size:34.3382px;font-family:Likhan;-inkscape-font-specification:'Likhan, Normal';font-variant-ligatures:normal;font-variant-caps:normal;font-variant-numeric:normal;font-variant-east-asian:normal;stroke-width:0.85846;fill:#000000"
         id="path880" />
      <path
         d="m 60.526312,-20.346981 -1.559303,5.801278 H 40.439807 v -0.653901 q 1.82757,-0.117367 2.397638,-0.670668 0.570068,-0.553301 0.586834,-2.213204 0,-0.100601 0,-0.201201 v -15.257696 q 0,-1.72697 -0.486234,-2.313804 -0.503001,-0.570068 -2.146137,-0.737735 -0.167667,-0.01677 -0.352101,-0.03353 v -0.653901 h 18.225402 l 0.1006,4.912643 h -0.855102 q -0.385634,-2.012004 -1.056302,-2.699439 -0.737735,-0.737734 -2.665905,-0.871868 -0.603601,-0.03353 -1.492236,-0.03353 h -4.644376 q -0.804801,0 -0.989235,0.335334 l -0.1006,0.335334 -0.03353,0.503001 v 7.612081 h 5.281511 q 2.380871,0 3.018005,-0.855102 0.402401,-0.519767 0.637135,-1.710203 0.0503,-0.285034 0.117367,-0.687435 h 0.788035 v 7.964182 h -0.788035 q -0.301801,-1.961703 -0.855102,-2.582071 -0.570068,-0.637135 -2.112604,-0.704202 -0.352101,-0.01677 -0.804801,-0.01677 h -5.281511 v 8.483949 q 0,0.938936 0.234734,1.073069 0.352101,0.352101 2.850339,0.402401 0.251501,0 0.519768,0 h 0.922168 q 3.420407,0 4.946176,-0.720968 1.42517,-0.670668 2.464705,-2.447938 0.335334,-0.570068 0.687435,-1.358103 z"
         style="font-style:normal;font-variant:normal;font-weight:normal;font-stretch:normal;font-size:34.3382px;font-family:Likhan;-inkscape-font-specification:'Likhan, Normal';font-variant-ligatures:normal;font-variant-caps:normal;font-variant-numeric:normal;font-variant-east-asian:normal;stroke-width:0.85846;fill:#000000"
         id="path882" />
      <path
         d="m 83.64759,-15.199604 v 0.653901 h -5.53301 l -8.18215,-10.579787 -1.911403,0.06707 v 6.773746 q 0,1.72697 0.452701,2.297038 0.469467,0.586834 2.045537,0.737735 0.268267,0.03353 0.586834,0.0503 v 0.653901 h -9.506718 v -0.653901 q 1.743737,-0.134134 2.280271,-0.586835 0.553301,-0.486234 0.620368,-1.97847 0.01677,-0.385634 0.01677,-0.905402 V -33.54237 q 0,-1.693437 -0.402401,-2.229971 -0.402401,-0.553301 -1.82757,-0.771268 -0.285034,-0.03353 -0.687435,-0.08383 v -0.653901 h 9.473185 q 3.671907,0 6.052778,1.291036 0.821569,0.452701 1.32457,1.006002 1.341335,1.492236 1.341335,3.755741 0,2.17967 -1.374869,3.60484 -0.167667,0.184434 -0.368867,0.335334 -1.190436,0.972468 -2.867106,1.425169 -0.653901,0.184434 -1.592836,0.368868 l 7.05878,8.68515 q 0.989235,1.140135 1.944937,1.425169 0.435934,0.134134 1.056302,0.184434 z M 68.021027,-34.766342 v 8.450416 q 3.219206,-0.08383 4.577309,-0.503001 0.720968,-0.234733 1.492236,-0.670668 1.441936,-0.771268 1.844337,-2.665905 0.117367,-0.536534 0.117367,-1.140135 0,-3.370107 -3.05154,-4.309042 -1.307802,-0.402401 -3.235973,-0.402401 -1.274269,0 -1.576069,0.452701 l -0.117367,0.301801 z"
         style="font-style:normal;font-variant:normal;font-weight:normal;font-stretch:normal;font-size:34.3382px;font-family:Likhan;-inkscape-font-specification:'Likhan, Normal';font-variant-ligatures:normal;font-variant-caps:normal;font-variant-numeric:normal;font-variant-east-asian:normal;stroke-width:0.85846;fill:#000000"
         id="path884" />
      <path
         d="m 106.58444,-15.199604 v 0.653901 h -5.53301 l -8.182152,-10.579787 -1.911404,0.06707 v 6.773746 q 0,1.72697 0.452701,2.297038 0.469468,0.586834 2.045538,0.737735 0.268267,0.03353 0.586834,0.0503 v 0.653901 h -9.506718 v -0.653901 q 1.743736,-0.134134 2.280271,-0.586835 0.553301,-0.486234 0.620368,-1.97847 0.01677,-0.385634 0.01677,-0.905402 V -33.54237 q 0,-1.693437 -0.4024,-2.229971 -0.402401,-0.553301 -1.827571,-0.771268 -0.285034,-0.03353 -0.687434,-0.08383 v -0.653901 h 9.473185 q 3.671907,0 6.052772,1.291036 0.82157,0.452701 1.32457,1.006002 1.34134,1.492236 1.34134,3.755741 0,2.17967 -1.37487,3.60484 -0.16767,0.184434 -0.36887,0.335334 -1.190431,0.972468 -2.867101,1.425169 -0.653901,0.184434 -1.592837,0.368868 l 7.058778,8.68515 q 0.98923,1.140135 1.94494,1.425169 0.43593,0.134134 1.0563,0.184434 z M 90.957874,-34.766342 v 8.450416 q 3.219207,-0.08383 4.577309,-0.503001 0.720968,-0.234733 1.492236,-0.670668 1.441937,-0.771268 1.844337,-2.665905 0.117367,-0.536534 0.117367,-1.140135 0,-3.370107 -3.051539,-4.309042 -1.307802,-0.402401 -3.235973,-0.402401 -1.274269,0 -1.57607,0.452701 l -0.117366,0.301801 z"
         style="font-style:normal;font-variant:normal;font-weight:normal;font-stretch:normal;font-size:34.3382px;font-family:Likhan;-inkscape-font-specification:'Likhan, Normal';font-variant-ligatures:normal;font-variant-caps:normal;font-variant-numeric:normal;font-variant-east-asian:normal;stroke-width:0.85846;fill:#000000"
         id="path886" />
      <path
         d="m 131.13088,-15.199604 v 0.653901 h -8.75221 v -0.653901 q 1.82757,-0.03353 2.2132,-0.536535 0.18444,-0.234733 0.18444,-0.637134 0,-0.838335 -0.65391,-2.297038 l -1.4084,-3.286273 h -8.98695 l -1.59284,4.007241 q -0.26826,0.720968 -0.26826,1.341336 0,1.140136 1.42517,1.341336 0.38563,0.06707 0.9054,0.06707 v 0.653901 h -6.79051 v -0.653901 q 1.006,-0.03353 1.5593,-0.553301 0.68743,-0.637135 1.89464,-3.269507 0.31856,-0.704201 0.8048,-1.810803 l 7.14261,-16.850533 h 0.68744 l 8.55101,19.499671 q 0.92217,1.944937 1.45871,2.447938 0.503,0.452701 1.62636,0.536535 z m -16.83376,-8.165383 h 7.93065 l -3.97371,-9.456418 z"
         style="font-style:normal;font-variant:normal;font-weight:normal;font-stretch:normal;font-size:34.3382px;font-family:Likhan;-inkscape-font-specification:'Likhan, Normal';font-variant-ligatures:normal;font-variant-caps:normal;font-variant-numeric:normal;font-variant-east-asian:normal;stroke-width:0.85846;fill:#000000"
         id="path888" />
      <path
         d="m 138.64236,-24.538656 v 6.253979 q 0,1.77727 0.503,2.347338 0.53654,0.603601 2.22998,0.720968 0.21796,0 0.48623,0.01677 v 0.653901 h -9.60732 v -0.653901 q 1.72697,-0.1509 2.22997,-0.553301 0.5533,-0.435934 0.62037,-1.794037 0.0335,-0.435934 0.0335,-1.123369 V -33.54237 q 0,-1.710203 -0.4024,-2.246738 -0.1006,-0.1509 -0.2515,-0.2515 -0.51977,-0.385634 -2.22997,-0.586835 v -0.653901 h 9.05402 q 3.53777,0 6.01924,1.307803 0.98924,0.519767 1.57607,1.173669 1.40841,1.509003 1.40841,3.738974 0,2.431171 -1.65991,4.208441 -0.5533,0.586834 -1.22397,1.022769 -0.2012,0.117367 -0.41916,0.234733 -2.14614,1.140136 -6.00248,1.156903 -1.02277,0 -2.36411,-0.100601 z m 0,-10.294753 v 8.919884 q 1.17367,0.1006 1.94494,0.1006 5.54978,0 5.95218,-4.376108 0.0335,-0.318567 0.0335,-0.670668 0,-3.55454 -3.03477,-4.627609 -1.4084,-0.503001 -3.53777,-0.519768 -0.1006,0 -0.2012,0 -0.83834,0 -1.03954,0.402401 -0.11737,0.234734 -0.11737,0.771268 z"
         style="font-style:normal;font-variant:normal;font-weight:normal;font-stretch:normal;font-size:34.3382px;font-family:Likhan;-inkscape-font-specification:'Likhan, Normal';font-variant-ligatures:normal;font-variant-caps:normal;font-variant-numeric:normal;font-variant-east-asian:normal;stroke-width:0.85846;fill:#000000"
         id="path890" />
      <path
         d="m 157.99113,-26.869227 h 10.41212 v -6.673146 q 0,-1.710203 -0.41917,-2.263504 l -0.2515,-0.234734 q -0.53654,-0.419168 -2.36411,-0.586835 v -0.653901 h 9.55702 v 0.653901 q -1.8611,0.167667 -2.4144,0.620368 -0.5533,0.452701 -0.6036,1.810804 -0.0168,0.285034 -0.0168,0.653901 v 15.257696 q 0,1.743737 0.48623,2.297038 0.48624,0.586834 2.09584,0.754501 0.2012,0.01677 0.4527,0.03353 v 0.653901 h -9.55702 v -0.653901 q 1.81081,-0.117367 2.34734,-0.553301 0.58684,-0.469468 0.67067,-1.928171 0.0168,-0.4024 0.0168,-0.989235 v -6.689913 h -10.41212 v 7.075547 q 0,1.743737 0.48623,2.297038 0.48624,0.586834 2.09584,0.754501 0.2012,0.01677 0.43593,0.03353 v 0.653901 h -9.54025 v -0.653901 q 1.79404,-0.117367 2.34734,-0.553301 0.57007,-0.469468 0.6539,-1.894637 0.0168,-0.419168 0.0168,-1.022769 v -14.872062 q 0,-1.693437 -0.4024,-2.246738 -0.28504,-0.385634 -0.88864,-0.570067 -0.5533,-0.167667 -1.72697,-0.268268 v -0.653901 h 9.54025 v 0.653901 q -1.84433,0.167667 -2.39764,0.620368 -0.5533,0.452701 -0.6036,1.810804 -0.0168,0.285034 -0.0168,0.653901 z"
         style="font-style:normal;font-variant:normal;font-weight:normal;font-stretch:normal;font-size:34.3382px;font-family:Likhan;-inkscape-font-specification:'Likhan, Normal';font-variant-ligatures:normal;font-variant-caps:normal;font-variant-numeric:normal;font-variant-east-asian:normal;stroke-width:0.85846;fill:#000000"
         id="path892" />
      <path
         d="m 179.58663,-18.284677 v -15.257696 q 0,-1.710203 -0.41916,-2.263504 l -0.2515,-0.251501 q -0.60361,-0.452701 -2.58208,-0.570068 -0.0503,0 -0.0838,0 v -0.653901 h 10.19415 v 0.653901 q -2.0623,0.100601 -2.68267,0.586835 -0.62037,0.486234 -0.67067,1.92817 l -0.0168,0.570068 v 15.257696 q 0,1.760504 0.53653,2.347338 0.5533,0.603601 2.33057,0.720968 0.23474,0 0.503,0.01677 v 0.653901 h -10.19415 v -0.653901 q 2.02877,-0.06707 2.63237,-0.519768 0.62037,-0.452701 0.68744,-1.844337 0.0168,-0.3018 0.0168,-0.720968 z"
         style="font-style:normal;font-variant:normal;font-weight:normal;font-stretch:normal;font-size:34.3382px;font-family:Likhan;-inkscape-font-specification:'Likhan, Normal';font-variant-ligatures:normal;font-variant-caps:normal;font-variant-numeric:normal;font-variant-east-asian:normal;stroke-width:0.85846;fill:#000000"
         id="path894" />
      <path
         d="m 208.32477,-30.004599 h -0.78804 q -0.68743,-2.330572 -1.52577,-3.437174 -0.31856,-0.419167 -0.7545,-0.855101 -2.0623,-2.095838 -5.11384,-2.095838 -3.68868,0 -5.90188,2.732972 -2.2635,2.783272 -2.2635,7.511481 0,4.795276 2.02877,7.561782 0.41916,0.570067 0.92216,1.022768 2.24674,1.995237 5.56655,1.995237 3.13537,0 5.80128,-1.911403 0.9054,-0.637135 1.8611,-1.559303 l 0.6036,0.620368 q -2.2635,3.001239 -6.13661,3.973707 -1.5593,0.385634 -3.23597,0.385634 -3.88988,0 -6.89112,-2.045537 -0.9557,-0.670668 -1.72697,-1.492236 -2.14613,-2.397638 -2.64914,-6.153379 -0.13413,-0.972468 -0.13413,-1.961703 0,-4.97971 2.80004,-8.165383 0.43593,-0.486234 0.92217,-0.922168 2.63237,-2.347338 6.20368,-2.833572 0.78803,-0.117367 1.57607,-0.117367 2.53177,0 5.01324,0.821568 0.77127,0.3018 1.34134,0.3018 0.98923,0 1.37486,-0.905401 0.0335,-0.1006 0.0671,-0.217967 h 0.72097 z"
         style="font-style:normal;font-variant:normal;font-weight:normal;font-stretch:normal;font-size:34.3382px;font-family:Likhan;-inkscape-font-specification:'Likhan, Normal';font-variant-ligatures:normal;font-variant-caps:normal;font-variant-numeric:normal;font-variant-east-asian:normal;stroke-width:0.85846;fill:#000000"
         id="path896" />
      <path
         d="m 225.30943,-37.750814 0.77127,7.31028 h -0.87187 q -0.5533,-2.112604 -1.37487,-3.202439 -0.3018,-0.385634 -0.72096,-0.821568 -1.79404,-1.877871 -4.17491,-1.877871 -1.99524,0 -2.96771,1.307803 -0.6036,0.788035 -0.6036,1.87787 0,1.743737 1.94494,3.336573 1.12337,0.922169 3.10184,2.012004 4.44317,2.397638 5.75097,4.812043 0.67067,1.240735 0.67067,2.682672 0,2.531771 -1.8611,4.309041 l -0.62037,0.519768 q -1.62637,1.190436 -3.77251,1.391636 -0.36886,0.03353 -0.7545,0.03353 -2.012,0 -4.05754,-0.788035 -1.006,-0.385634 -1.6096,-0.385634 -0.58684,0 -0.83834,0.637135 -0.1006,0.234734 -0.11736,0.503001 h -0.77127 l -1.02277,-7.293514 h 0.78803 q 1.86111,4.510242 4.61085,5.650377 1.07307,0.435935 2.33057,0.435935 2.2132,0 3.38687,-1.441937 0.83834,-1.006001 0.83834,-2.431171 0,-1.291036 -0.48624,-1.995237 -1.3078,-2.012004 -5.11384,-4.024008 -3.57131,-1.87787 -4.67791,-3.906641 -0.68744,-1.223969 -0.68744,-2.783272 0,-2.699438 1.82757,-4.292275 1.65991,-1.475469 3.85635,-1.576069 0.13413,0 0.26826,0 1.65991,0 3.63838,0.754501 0.88863,0.402401 1.509,0.402401 0.88863,0 1.08983,-1.156902 z"
         style="font-style:normal;font-variant:normal;font-weight:normal;font-stretch:normal;font-size:34.3382px;font-family:Likhan;-inkscape-font-specification:'Likhan, Normal';font-variant-ligatures:normal;font-variant-caps:normal;font-variant-numeric:normal;font-variant-east-asian:normal;stroke-width:0.85846;fill:#000000"
         id="path898" />
    </g>
    <path
       style="opacity:0.397734;fill:#ff0000;stroke:none;stroke-width:2.27341;stroke-linejoin:round;stroke-miterlimit:4;stroke-dasharray:none;paint-order:stroke fill markers"
       d="m 96.747177,159.14485 65.361723,7.27086 H 31.385438 Z"
       id="rect936" />
    <path
       style="opacity:0.397734;fill:#ff0000;stroke:none;stroke-width:2.27341;stroke-linejoin:round;stroke-miterlimit:4;stroke-dasharray:none;paint-order:stroke fill markers"
       d="M 96.747177,205.17456 162.1089,197.90371 H 31.385438 Z"
       id="path940" />
    <path
       id="path991"
       style="opacity:0.397734;fill:#00ff00;stroke:#00ff00;stroke-width:1;stroke-linejoin:round;stroke-miterlimit:4;stroke-dasharray:none;paint-order:stroke fill markers"
       d="m 96.747177,159.14483 -65.361898,7.27088 H 162.10908 Z m -65.361898,38.75888 65.361898,7.27087 65.361903,-7.27087 z"
       sodipodi:nodetypes="cccccccc" />
    <path
       style="opacity:1;fill:#000000;fill-opacity:1;stroke:#00ff00;stroke-width:1;stroke-linejoin:round;stroke-miterlimit:4;stroke-dasharray:none;paint-order:stroke fill markers"
       d="m 55.535907,162.20883 c -1.024859,-3.40296 -2.760722,-16.79703 -2.765265,-21.33699 l -7.94e-4,-0.76851 4.204989,-1.35556 c 4.831,-1.55737 7.89099,-2.40351 12.07692,-3.33949 20.3533,-4.551 41.067573,-4.03611 61.581183,1.53072 2.88578,0.78312 9.98272,3.07074 10.0798,3.24911 0.13271,0.24383 -0.25163,5.98775 -0.63462,9.48424 -0.50175,4.58072 -1.79962,12.4613 -2.09925,12.74643 -0.0384,0.0366 -9.29723,-0.96157 -20.57509,-2.2181 l -20.505213,-2.2846 -20.22173,2.22889 c -11.12194,1.22589 -20.40505,2.26977 -20.62913,2.31975 -0.2818,0.0628 -0.43959,-0.016 -0.51183,-0.25589 z"
       id="path1034" />
    <path
       style="opacity:1;fill:#000000;fill-opacity:1;stroke:#00ff00;stroke-width:1;stroke-linejoin:round;stroke-miterlimit:4;stroke-dasharray:none;paint-order:stroke fill markers"
       d="m 95.943407,229.77733 c -3.80549,-3.19784 -10.86161,-10.36306 -14.39799,-14.6206 -3.20189,-3.85484 -8.56471,-11.14378 -8.33316,-11.3261 0.0346,-0.0272 5.33031,0.54273 11.76834,1.26654 l 11.70551,1.31601 11.918003,-1.32606 c 6.5549,-0.72934 11.95349,-1.29206 11.99687,-1.2505 0.18674,0.17891 -4.96844,7.30303 -7.71285,10.65865 -3.68311,4.50339 -9.86751,10.93647 -14.298893,14.87385 l -1.52216,1.35246 z"
       id="path1036" />
    <path
       style="opacity:1;fill:#000000;fill-opacity:1;stroke:#00ff00;stroke-width:0.714285;stroke-linejoin:round;stroke-miterlimit:4;stroke-dasharray:none;paint-order:stroke fill markers"
       d="m 52.134094,163.15225 c -0.05692,-0.18987 -0.361786,-1.70594 -0.677481,-3.36903 -1.134676,-5.97753 -1.738815,-10.9915 -2.103181,-17.45506 -0.272632,-4.8363 -0.454091,-4.49472 3.056824,-5.75422 10.566981,-3.7908 22.171441,-6.25836 34.566461,-7.35016 4.20052,-0.37 16.239773,-0.31047 20.694203,0.10233 7.52518,0.69736 14.79912,1.93997 21.73363,3.71277 6.33008,1.61827 13.61239,4.02814 14.41928,4.77164 l 0.46455,0.42805 -0.11304,3.49628 c -0.18036,5.57805 -0.94908,12.29782 -2.11874,18.52084 -0.6801,3.61839 -0.43731,3.26447 -2.1333,3.10979 -0.79603,-0.0726 -1.51016,-0.16861 -1.58696,-0.21335 -0.0768,-0.0447 -0.01,-0.27972 0.14922,-0.5222 0.91201,-1.39189 3.28662,-21.03943 2.72225,-22.52383 -0.20807,-0.54726 -0.7088,-0.75695 -5.18868,-2.17279 -19.9504,-6.30524 -40.258813,-7.78688 -60.356743,-4.40344 -6.67107,1.12306 -11.9786,2.44477 -19.37781,4.82558 l -4.139323,1.33189 0.121756,2.77189 c 0.268547,6.11368 2.104004,19.00571 2.875365,20.1962 0.148021,0.22845 0.206293,0.45197 0.129492,0.4967 -0.0768,0.0447 -0.790934,0.14075 -1.586962,0.21335 -1.303105,0.11885 -1.457632,0.0976 -1.550811,-0.21323 z"
       id="path1070" />
    <path
       style="opacity:1;fill:#000000;fill-opacity:1;stroke:#00ff00;stroke-width:0.714285;stroke-linejoin:round;stroke-miterlimit:4;stroke-dasharray:none;paint-order:stroke fill markers"
       d="m 45.344778,164.09695 c -0.284824,-0.47023 -1.619065,-8.2626 -2.113886,-12.34573 -0.479597,-3.95752 -0.854954,-9.74433 -0.855163,-13.18398 -1.8e-4,-2.92759 0.04079,-3.34931 0.399566,-4.11257 0.645562,-1.37337 1.910387,-2.34449 4.158729,-3.19301 26.887493,-10.14734 55.617696,-11.87809 83.415466,-5.02505 7.45446,1.83776 17.36799,5.15189 18.89517,6.31673 0.84426,0.64395 1.74986,2.21053 1.92038,3.322 0.26345,1.71729 -0.36927,12.1459 -1.07741,17.75794 -0.22557,1.78769 -1.19877,7.59266 -1.56965,9.36273 l -0.23759,1.13393 -1.40592,-0.053 c -0.77326,-0.0291 -1.49942,-0.0853 -1.61368,-0.12488 -0.14193,-0.0491 -0.0395,-0.94428 0.32337,-2.82564 1.22654,-6.35938 1.9455,-12.7688 2.25655,-20.11663 0.23675,-5.59245 0.20888,-5.70299 -1.61622,-6.4108 -25.74238,-9.98339 -54.690913,-11.9115 -81.497093,-5.42809 -7.56721,1.83022 -17.606956,5.14284 -18.700603,6.17027 -0.413655,0.38861 -0.438417,0.54641 -0.437589,2.78857 0.0024,6.42788 0.93976,15.45209 2.347082,22.59535 0.339701,1.72425 0.566952,3.1641 0.505002,3.19966 -0.278186,0.15967 -3.012011,0.31168 -3.096511,0.17217 z"
       id="path1072" />
    <path
       style="opacity:1;fill:#000000;fill-opacity:1;stroke:#00ff00;stroke-width:0.714285;stroke-linejoin:round;stroke-miterlimit:4;stroke-dasharray:none;paint-order:stroke fill markers"
       d="m 93.824717,232.56081 c -7.21443,-6.21881 -13.66031,-13.11154 -19.28029,-20.61688 -2.11821,-2.82883 -6.37228,-9.13417 -6.24708,-9.25937 0.0415,-0.0415 0.96584,0.0204 2.05412,0.13763 1.9882,0.21409 2.53563,0.46068 2.31266,1.04174 -0.053,0.13822 0.29411,0.83863 0.77144,1.55647 1.36365,2.05074 5.88431,8.0066 7.8922,10.39778 4.4389,5.28625 14.81884,15.49703 15.75376,15.49703 0.91949,0 12.041563,-11.24656 16.333193,-16.516 3.27096,-4.01622 7.7673,-10.36031 7.77174,-10.96549 0.002,-0.21684 0.0654,-0.48649 0.14174,-0.59923 0.14578,-0.2152 3.97769,-0.74388 4.14913,-0.57244 0.12563,0.12563 -4.1405,6.56007 -6.09137,9.18738 -5.84461,7.87113 -12.59547,15.10324 -20.089763,21.52191 -2.26164,1.93703 -2.28869,1.93303 -5.47148,-0.81053 z"
       id="path1074" />
    <path
       style="opacity:1;fill:#000000;fill-opacity:1;stroke:#00ff00;stroke-width:0.714285;stroke-linejoin:round;stroke-miterlimit:4;stroke-dasharray:none;paint-order:stroke fill markers"
       d=""
       id="path1076" />
    <path
       style="opacity:1;fill:#000000;fill-opacity:1;stroke:#00ff00;stroke-width:0.714285;stroke-linejoin:round;stroke-miterlimit:4;stroke-dasharray:none;paint-order:stroke fill markers"
       d="m 95.117017,242.26664 c -2.4747,-1.1227 -12.73565,-10.49247 -18.3054,-16.71557 -5.90941,-6.60258 -10.84983,-13.28243 -15.37533,-20.78869 -1.00268,-1.66309 -1.80252,-3.04621 -1.77742,-3.07358 0.0251,-0.0274 0.90595,0.0481 1.95746,0.16763 l 1.91183,0.21739 1.60188,2.57271 c 3.57799,5.74646 7.64227,11.29558 12.13001,16.56153 4.47847,5.25507 13.56428,13.99453 18.07172,17.38284 1.63215,1.22691 1.98282,1.18343 4.05835,-0.50321 11.377263,-9.24547 21.294833,-20.57202 29.176513,-33.3216 1.81415,-2.93459 1.57626,-2.7614 4.14002,-3.01403 0.74076,-0.073 1.32811,-0.0571 1.32811,0.036 0,0.0918 -0.81512,1.52142 -1.81137,3.17699 -4.71309,7.83227 -9.89514,14.81543 -16.04778,21.62548 -5.25144,5.81255 -14.98235,14.70225 -17.198143,15.7114 -1.0325,0.47023 -2.78141,0.45425 -3.86045,-0.0353 z"
       id="path1078" />
    <path
       style="opacity:1;fill:#000000;fill-opacity:1;stroke:#00ff00;stroke-width:0.714285;stroke-linejoin:round;stroke-miterlimit:4;stroke-dasharray:none;paint-order:stroke fill markers"
       d="m 56.182087,165.14574 c -0.12525,-0.63666 -0.15758,-1.21836 -0.0718,-1.29267 0.0857,-0.0743 9.27694,-1.14272 20.42487,-2.37425 l 20.26897,-2.23914 20.268983,2.23914 c 11.14793,1.23153 20.34532,2.30614 20.43863,2.38801 0.0994,0.0872 0.0691,0.6226 -0.0731,1.29267 l -0.24273,1.1438 H 96.802867 56.409827 Z"
       id="path1080" />
    <path
       style="opacity:1;fill:#000000;fill-opacity:1;stroke:#00ff00;stroke-width:0.714285;stroke-linejoin:round;stroke-miterlimit:4;stroke-dasharray:none;paint-order:stroke fill markers"
       d="m 68.958247,202.02041 c -0.60722,-0.0776 -1.21311,-0.25779 -1.34641,-0.40044 -0.13331,-0.14266 -0.67675,-1.00352 -1.20764,-1.91302 l -0.96527,-1.65365 1.9337,0.006 1.93371,0.006 1.13392,1.89758 c 0.62367,1.04367 1.16228,1.97647 1.19693,2.0729 0.0715,0.19908 -1.05141,0.19266 -2.67894,-0.0153 z"
       id="path1082" />
    <path
       style="opacity:1;fill:#000000;fill-opacity:1;stroke:#00ff00;stroke-width:0.714285;stroke-linejoin:round;stroke-miterlimit:4;stroke-dasharray:none;paint-order:stroke fill markers"
       d=""
       id="path1084" />
    <path
       style="opacity:1;fill:#000000;fill-opacity:1;stroke:#00ff00;stroke-width:0.714285;stroke-linejoin:round;stroke-miterlimit:4;stroke-dasharray:none;paint-order:stroke fill markers"
       d="m 60.566227,201.06467 c -0.64933,-0.0844 -1.26802,-0.20754 -1.37487,-0.27358 -0.10686,-0.066 -0.49246,-0.71217 -0.8569,-1.43585 l -0.66261,-1.31576 1.84075,0.0542 1.84075,0.0542 0.80473,1.41741 c 0.4426,0.77957 0.80752,1.48119 0.81094,1.55915 0.007,0.16925 -0.79543,0.1493 -2.40279,-0.0597 z"
       id="path1086" />
    <path
       style="opacity:1;fill:#000000;fill-opacity:1;stroke:#00ff00;stroke-width:0.714285;stroke-linejoin:round;stroke-miterlimit:4;stroke-dasharray:none;paint-order:stroke fill markers"
       d="m 131.53788,199.67779 0.89048,-1.61921 1.85706,-0.003 1.85707,-0.003 -0.75978,1.36992 c -0.84609,1.52551 -0.8083,1.50579 -3.34014,1.74304 l -1.39517,0.13074 z"
       id="path1088" />
    <path
       style="opacity:1;fill:#000000;fill-opacity:1;stroke:#00ff00;stroke-width:0.714285;stroke-linejoin:round;stroke-miterlimit:4;stroke-dasharray:none;paint-order:stroke fill markers"
       d="m 122.12851,202.11872 c 0,-0.0685 0.53153,-1.01037 1.18117,-2.09301 l 1.18118,-1.96843 1.84263,-0.002 c 1.01345,-0.001 1.84154,0.0618 1.84021,0.13975 -0.001,0.078 -0.4483,0.90376 -0.99325,1.83511 -0.8624,1.47388 -1.07223,1.71001 -1.619,1.82184 -1.04765,0.21426 -3.43294,0.39959 -3.43294,0.26673 z"
       id="path1090" />
    <path
       style="opacity:1;fill:#000000;fill-opacity:1;stroke:#00ff00;stroke-width:0.714285;stroke-linejoin:round;stroke-miterlimit:4;stroke-dasharray:none;paint-order:stroke fill markers"
       d="m 137.71323,165.97257 c 0.0705,-0.1819 0.17762,-0.74446 0.2381,-1.25014 l 0.10997,-0.91943 0.84793,0.11622 c 0.46636,0.0639 1.06993,0.11753 1.34127,0.11912 0.88955,0.005 1.00051,0.19589 0.74874,1.28664 l -0.22583,0.97832 h -1.59416 c -1.44107,0 -1.58185,-0.0318 -1.46602,-0.33073 z"
       id="path1092" />
    <path
       style="opacity:1;fill:#000000;fill-opacity:1;stroke:#00ff00;stroke-width:0.714285;stroke-linejoin:round;stroke-miterlimit:4;stroke-dasharray:none;paint-order:stroke fill markers"
       d=""
       id="path1094" />
    <path
       style="opacity:1;fill:#000000;fill-opacity:1;stroke:#00ff00;stroke-width:0.714285;stroke-linejoin:round;stroke-miterlimit:4;stroke-dasharray:none;paint-order:stroke fill markers"
       d="m 144.63349,165.5946 c 0.0905,-0.38979 0.1666,-0.77926 0.16908,-0.86549 0.004,-0.14927 2.18872,-0.01 2.88658,0.18471 0.33524,0.0933 0.42493,0.54611 0.21601,1.09054 -0.0926,0.24122 -0.43542,0.29894 -1.77548,0.29894 h -1.66077 z"
       id="path1100" />
    <path
       style="opacity:1;fill:#000000;fill-opacity:1;stroke:#00ff00;stroke-width:0.714285;stroke-linejoin:round;stroke-miterlimit:4;stroke-dasharray:none;paint-order:stroke fill markers"
       d="m 63.952077,166.91752 c 17.94779,-0.0266 47.373233,-0.0266 65.389883,0 18.01664,0.0266 3.33208,0.0483 -32.632353,0.0483 -35.96443,0 -50.705324,-0.0218 -32.75753,-0.0483 z"
       id="path1102" />
    <path
       style="opacity:1;fill:#000000;fill-opacity:1;stroke:#00ff00;stroke-width:0.714285;stroke-linejoin:round;stroke-miterlimit:4;stroke-dasharray:none;paint-order:stroke fill markers"
       d="m 56.171657,166.9652 c 0,-0.25168 4.60445,-0.28392 40.5537,-0.28392 32.358963,0 40.537783,0.0477 40.474953,0.23623 -0.0626,0.18781 -8.37571,0.24601 -40.553693,0.28392 -35.90037,0.0423 -40.47496,0.0156 -40.47496,-0.23623 z m 60.727533,-0.0477 c -11.03569,-0.0269 -29.150203,-0.0269 -40.254473,-1e-5 -11.10426,0.0269 -2.07506,0.049 20.06489,0.049 22.139953,1e-5 31.225263,-0.022 20.189583,-0.049 z"
       id="path1104" />
    <path
       style="opacity:1;fill:#000000;fill-opacity:1;stroke:#00ff00;stroke-width:0.714285;stroke-linejoin:round;stroke-miterlimit:4;stroke-dasharray:none;paint-order:stroke fill markers"
       d="m 83.353497,197.91158 c 7.51805,-0.0274 19.764483,-0.0274 27.214283,1e-5 7.44981,0.0274 1.29867,0.0498 -13.669183,0.0498 -14.96786,0 -21.06315,-0.0224 -13.5451,-0.0498 z"
       id="path1108" />
    <path
       style="opacity:1;fill:#000000;fill-opacity:1;stroke:#00ff00;stroke-width:0.714285;stroke-linejoin:round;stroke-miterlimit:4;stroke-dasharray:none;paint-order:stroke fill markers"
       d="m 87.496437,197.91222 c 1.16936,-0.0331 3.08287,-0.0331 4.25223,0 1.16937,0.0332 0.21261,0.0603 -2.12612,0.0603 -2.33872,0 -3.29547,-0.0271 -2.12611,-0.0603 z"
       id="path1110" />
    <path
       style="opacity:1;fill:#000000;fill-opacity:1;stroke:#00ff00;stroke-width:0.178572;stroke-linejoin:round;stroke-miterlimit:4;stroke-dasharray:none;paint-order:stroke fill markers"
       d="m 116.60919,197.90048 c 1.38374,-0.007 3.64806,-0.007 5.03181,0 1.38374,0.007 0.25159,0.0127 -2.51591,0.0127 -2.76749,0 -3.89965,-0.006 -2.5159,-0.0127 z"
       id="path1126" />
    <path
       style="opacity:1;fill:#000000;fill-opacity:1;stroke:#00ff00;stroke-width:0.178572;stroke-linejoin:round;stroke-miterlimit:4;stroke-dasharray:none;paint-order:stroke fill markers"
       d="m 116.2018,221.19473 c 0.0357,-0.0447 0.43774,-0.52836 0.89349,-1.07487 4.10826,-4.92637 7.89497,-10.18851 11.28895,-15.68749 1.30863,-2.12026 1.54671,-2.40507 2.2533,-2.6956 l 0.27568,-0.11335 -0.2008,-0.001 c -0.23286,-0.001 -0.38978,-0.12487 -0.38978,-0.30693 0,-0.12414 1.74187,-3.3374 1.896,-3.49757 0.0881,-0.0915 0.15273,-0.0945 2.06897,-0.0945 1.87882,0 1.98304,0.005 2.07759,0.09 0.0548,0.0495 0.0995,0.14595 0.0995,0.21433 0,0.12133 -0.92117,1.83989 -1.25906,2.34895 -0.35023,0.52763 -0.74085,0.77596 -1.46491,0.93127 l -0.32346,0.0694 0.27634,0.004 c 0.53697,0.007 0.7506,0.22978 0.59881,0.62311 -0.14718,0.38136 -1.57053,2.80307 -2.95445,5.02676 -3.02404,4.85901 -6.12172,9.21922 -9.82695,13.83217 -0.30926,0.38502 -0.34224,0.41178 -0.50791,0.41228 -0.0974,2.9e-4 -0.17718,-0.01 -0.17718,-0.0229 0,-0.0129 0.42066,-0.54971 0.93479,-1.19299 4.19402,-5.24747 8.12592,-10.98662 11.42777,-16.68041 0.7661,-1.32108 0.8889,-1.56562 0.82051,-1.63387 -0.12715,-0.12687 -2.28836,0.0243 -3.01897,0.21114 -0.60124,0.15377 -0.92541,0.42629 -1.45588,1.22391 -0.12962,0.1949 -0.64652,1.01345 -1.14868,1.81901 -3.40052,5.45511 -6.9772,10.41405 -10.94731,15.17811 l -0.91542,1.09849 h -0.19292 c -0.17604,0 -0.18724,-0.007 -0.12807,-0.0812 z m 15.98709,-20.0251 c 0.70162,-0.0671 1.41387,-0.1512 1.58278,-0.18678 0.79827,-0.16815 0.96727,-0.33954 1.76987,-1.7949 0.22929,-0.41577 0.46905,-0.84631 0.5328,-0.95675 l 0.1159,-0.2008 h -1.88788 -1.88789 l -0.88056,1.60215 c -0.4843,0.88118 -0.88054,1.62164 -0.88054,1.64546 0,0.0238 0.0585,0.0367 0.12992,0.0285 0.0715,-0.008 0.70398,-0.0697 1.4056,-0.13689 z"
       id="path1130" />
    <path
       style="opacity:1;fill:#000000;fill-opacity:1;stroke:#00ff00;stroke-width:0.178572;stroke-linejoin:round;stroke-miterlimit:4;stroke-dasharray:none;paint-order:stroke fill markers"
       d="m 81.414287,220.8389 c -2.63054,-2.89369 -6.05255,-7.14891 -8.38755,-10.42978 -2.24852,-3.15936 -4.9095,-7.16765 -5.04438,-7.59844 -0.0799,-0.25517 0.15683,-0.47522 0.5209,-0.48422 0.0841,-0.002 -7.9e-4,-0.0377 -0.21597,-0.0909 -0.47695,-0.1177 -0.75124,-0.24146 -0.92132,-0.41572 -0.31539,-0.32315 -2.24423,-3.5752 -2.24423,-3.78381 0,-0.0752 0.0433,-0.17174 0.0999,-0.22276 0.0956,-0.0862 0.18769,-0.0893 2.16155,-0.0732 1.40363,0.0114 2.08203,0.0334 2.1254,0.0687 0.062,0.0505 1.31171,2.1298 2.07875,3.45875 0.39229,0.67965 0.40787,0.7349 0.28163,0.99805 -0.0709,0.14785 -0.25056,0.21236 -0.67594,0.24275 l -0.37798,0.027 0.49915,0.0804 c 0.5643,0.0908 0.97704,0.2017 1.22842,0.32995 0.17186,0.0877 0.46942,0.38722 0.46942,0.47255 0,0.0251 0.0372,0.0453 0.0827,0.0449 0.0707,-6e-4 0.0724,-0.007 0.0118,-0.0465 -0.13371,-0.0864 0.39848,-0.0502 2.46907,0.1682 1.77108,0.18677 10.03422,1.10376 18.53223,2.05658 l 2.59859,0.29136 8.575333,-0.95135 c 7.79927,-0.86526 12.114,-1.33105 14.28894,-1.54255 0.76138,-0.074 1.01214,-0.0741 1.23686,-1.9e-4 0.0842,0.0277 0.10429,0.01 0.12963,-0.11718 0.0165,-0.0825 0.0992,-0.21891 0.18384,-0.3032 0.17454,-0.17387 0.45284,-0.25537 1.47571,-0.43213 l 0.61527,-0.10632 -0.55229,0.007 c -0.49295,0.007 -0.56655,-0.003 -0.68508,-0.0914 -0.18917,-0.14062 -0.1934,-0.32592 -0.0155,-0.67834 0.32487,-0.64357 2.22854,-3.83118 2.34574,-3.92786 0.0657,-0.0542 0.36926,-0.0645 1.68276,-0.0573 0.88252,0.005 1.75472,0.0322 1.94119,0.0609 0.40157,0.0618 0.56832,0.18879 0.56153,0.42754 -0.007,0.23633 -1.27774,2.49392 -1.81196,3.2184 -0.36256,0.4917 -0.70427,0.70054 -1.27542,0.7795 l -0.25385,0.0351 0.20831,0.037 c 0.26434,0.047 0.42974,0.19741 0.42886,0.39014 -10e-4,0.27376 -0.6316,1.30175 -2.69651,4.39755 -3.3928,5.08661 -6.07761,8.60017 -10.02753,13.12286 -0.92385,1.05779 -0.94167,1.07484 -1.1232,1.07484 -0.10146,0 -0.18446,-0.0107 -0.18446,-0.0238 0,-0.0131 0.34352,-0.41172 0.76338,-0.88588 2.77842,-3.13778 5.90889,-7.07427 8.04989,-10.12254 2.0919,-2.97835 4.93561,-7.34742 4.93561,-7.58305 0,-0.1882 -3.53703,0.25625 -4.06324,0.51057 -0.17009,0.0822 -0.21175,0.1813 -0.30331,0.72147 -0.0924,0.54532 -2.87571,4.59449 -5.68191,8.26618 -2.18721,2.86179 -3.64249,4.56763 -6.76015,7.92403 l -1.10813,1.19298 h -0.35223 -0.35223 l 0.69983,-0.74515 c 1.79674,-1.91309 3.61969,-3.96386 5.0074,-5.63319 2.53853,-3.05367 8.04753,-10.61147 8.04753,-11.0404 0,-0.0483 -0.0592,-0.0574 -0.24805,-0.0379 -0.13643,0.0141 -0.89651,0.0891 -1.68908,0.16682 -2.31563,0.22698 -5.83736,0.60804 -14.18558,1.53491 l -7.830843,0.86943 -5.63454,-0.63426 c -7.64504,-0.86057 -13.85141,-1.54588 -15.81628,-1.74642 -0.89652,-0.0915 -1.72039,-0.17695 -1.83083,-0.18989 -0.16857,-0.0198 -0.2008,-0.0103 -0.2008,0.059 0,0.49723 5.73526,8.23929 8.67008,11.7038 1.08227,1.2776 2.90216,3.28729 4.55269,5.02752 l 0.63143,0.66574 h -0.35556 -0.35557 l -0.77635,-0.81501 c -1.41102,-1.48129 -2.85831,-3.07026 -3.8408,-4.21679 -1.63287,-1.90552 -5.32308,-6.69535 -7.4577,-9.67997 -0.83479,-1.16719 -1.20148,-1.74028 -1.43226,-2.23843 -0.13631,-0.29425 -0.15458,-0.37499 -0.12879,-0.56939 0.0264,-0.19895 0.0151,-0.24429 -0.0927,-0.37245 -0.0675,-0.0803 -0.20674,-0.17951 -0.30934,-0.22056 -0.45896,-0.18364 -2.1113,-0.41877 -3.41639,-0.48617 -0.51,-0.0263 -0.6024,-0.0206 -0.6024,0.0377 0,0.24173 2.60533,4.17069 4.97684,7.50531 2.25698,3.17358 5.49587,7.21369 8.13823,10.15144 0.33561,0.37312 0.64917,0.72925 0.69682,0.79139 l 0.0866,0.11297 h -0.18711 c -0.17586,0 -0.21099,-0.0263 -0.5844,-0.43703 z m -9.87876,-18.68054 c 0.0585,-0.0157 0.1063,-0.0621 0.1063,-0.10321 0,-0.0956 -0.26722,-0.56694 -1.40447,-2.47741 l -0.92108,-1.54734 h -1.95831 c -1.07708,0 -1.94917,0.0159 -1.93799,0.0354 0.98883,1.72376 1.98287,3.35771 2.15324,3.53938 0.20182,0.21519 0.89107,0.39299 1.96612,0.50718 0.64117,0.0681 1.81291,0.0951 1.99619,0.046 z m 51.870373,-0.0183 c 1.42274,-0.11219 2.35293,-0.26768 2.60377,-0.43524 0.22934,-0.15322 0.59065,-0.65158 1.12251,-1.54833 0.66112,-1.11471 1.08579,-1.93458 1.03063,-1.98974 -0.0787,-0.0787 -1.07401,-0.13481 -2.40525,-0.13561 l -1.28141,-7.7e-4 -0.89638,1.50009 c -1.1063,1.85142 -1.49397,2.54653 -1.4552,2.60926 0.038,0.0615 0.50426,0.0616 1.28133,3.4e-4 z"
       id="path1132" />
    <path
       style="opacity:1;fill:#000000;fill-opacity:1;stroke:#00ff00;stroke-width:0.178572;stroke-linejoin:round;stroke-miterlimit:4;stroke-dasharray:none;paint-order:stroke fill markers"
       d="m 96.759897,231.12873 c -1.04691,-0.63042 -3.83351,-3.20179 -7.97299,-7.35718 l -2.48607,-2.49562 0.4072,0.003 0.40719,0.003 0.30711,0.3525 c 0.4051,0.46497 4.1608,4.19987 5.36254,5.33284 1.5085,1.42218 4.1696,3.75771 4.28153,3.75771 0.0941,0 2.88782,-2.5408 4.576143,-4.16183 1.69833,-1.63065 5.10699,-5.10142 5.18134,-5.27576 0.0638,-0.1496 0.14855,-0.22384 0.0944,-0.0827 -0.0228,0.0594 0.0358,0.0711 0.36111,0.0726 0.32894,0.001 0.3729,0.0104 0.28751,0.0591 -0.0554,0.0316 -0.41555,0.38693 -0.80025,0.78971 -3.41532,3.57585 -6.939523,7.02488 -8.590623,8.40739 -0.47864,0.40078 -0.99271,0.75853 -1.08996,0.75853 -0.03,0 -0.17675,-0.0736 -0.32616,-0.16357 z"
       id="path1134" />
    <path
       style="opacity:1;fill:#000000;fill-opacity:1;stroke:#00ff00;stroke-width:0.178572;stroke-linejoin:round;stroke-miterlimit:4;stroke-dasharray:none;paint-order:stroke fill markers"
       d="m 96.402017,242.58194 c -0.77669,-0.0974 -1.35908,-0.33028 -2.15249,-0.86073 -3.52476,-2.3566 -12.46529,-10.67368 -17.46646,-16.24847 -5.58388,-6.22433 -10.47425,-12.79687 -14.89151,-20.01379 l -0.64407,-1.05229 v -1.27462 -1.27463 l 0.1063,3.5e-4 c 0.0585,2e-4 0.55279,0.0531 1.0985,0.11749 0.5457,0.0644 1.00692,0.11741 1.02493,0.11776 0.018,3.5e-4 0.39942,0.59063 0.84758,1.31174 3.43993,5.53507 6.29319,9.61781 9.8149,14.04418 2.79338,3.51095 4.33148,5.26339 7.58483,8.6418 5.3247,5.5294 12.78501,12.26123 14.57681,13.15343 0.36384,0.18117 0.42901,0.19813 0.75595,0.19676 0.31675,-0.001 0.39885,-0.0218 0.71566,-0.1787 0.45698,-0.2263 1.22673,-0.80704 2.729003,-2.05891 5.51417,-4.59506 10.67066,-9.65624 15.28863,-15.00606 0.35889,-0.41577 0.70225,-0.78784 0.76301,-0.82682 0.17301,-0.11098 2.4382,-2.87508 3.85256,-4.70108 2.81694,-3.6368 5.29143,-7.18484 7.85884,-11.26842 1.77203,-2.81848 1.94591,-3.04342 2.51408,-3.25229 0.45701,-0.16801 1.84678,-0.33848 2.75953,-0.33848 h 0.376 l -0.16508,0.32779 c -0.21668,0.43028 -1.33831,2.35347 -2.09075,3.5849 -2.26995,3.71496 -4.70055,7.30223 -7.32849,10.81596 -1.01283,1.35422 -1.26999,1.688 -2.63047,3.41421 -0.41984,0.53271 -0.8348,1.07487 -0.92212,1.2048 -0.44653,0.6644 -3.41353,4.1072 -5.33398,6.18936 -1.09538,1.18761 -4.47107,4.58582 -6.09875,6.13942 -3.56502,3.40279 -6.81634,6.26311 -8.8646,7.79856 -1.057853,0.79301 -1.599983,1.08621 -2.276923,1.2314 -0.4079,0.0875 -1.35188,0.12175 -1.80142,0.0654 z"
       id="path1136" />
    <path
       style="opacity:1;fill:#000000;fill-opacity:1;stroke:#00ff00;stroke-width:0.178572;stroke-linejoin:round;stroke-miterlimit:4;stroke-dasharray:none;paint-order:stroke fill markers"
       d="m 96.328397,239.21143 c -2.47568,-1.26028 -12.62476,-10.74921 -18.17356,-16.99146 -2.47912,-2.78895 -5.73632,-6.90646 -8.22184,-10.39344 -1.57437,-2.20871 -3.07306,-4.4503 -4.69535,-7.02283 -0.40737,-0.64599 -0.95611,-1.51471 -1.21943,-1.93048 -0.26331,-0.41577 -0.47496,-0.76765 -0.47033,-0.78194 0.005,-0.0143 -0.0699,-0.0312 -0.16562,-0.0375 -0.0957,-0.006 -0.52484,-0.053 -0.95361,-0.10372 -0.42876,-0.0507 -0.86993,-0.0923 -0.98037,-0.0924 l -0.2008,-2.1e-4 v -0.34499 -0.345 l 0.31892,0.0355 c 0.45942,0.0511 1.29898,0.0467 1.38197,-0.007 0.0597,-0.0388 0.0225,-0.14073 -0.23679,-0.64893 -0.49929,-0.97842 -1.33489,-2.42191 -1.40198,-2.42191 -0.0399,0 -0.0621,-0.0611 -0.0621,-0.17048 0,-0.16231 0.006,-0.16893 0.12966,-0.13795 0.0713,0.0179 0.15478,0.0534 0.18548,0.0789 0.0641,0.0532 0.99718,1.68876 1.427,2.50133 0.32368,0.61189 0.36312,0.82149 0.18571,0.98678 -0.128,0.11924 -0.36539,0.18808 -0.67581,0.19595 -0.14126,0.004 0.0457,0.0392 0.46498,0.0886 0.55364,0.0652 0.71884,0.10129 0.78493,0.17145 0.046,0.0489 0.45208,0.68417 0.90231,1.41178 3.39143,5.48077 6.25576,9.56969 9.96224,14.22135 2.22719,2.79515 3.86155,4.68535 6.16713,7.13252 1.102,1.16968 4.99263,5.05964 6.37339,6.37229 4.3347,4.12088 8.45843,7.62684 9.45133,8.03542 0.10062,0.0414 0.30637,0.0753 0.45723,0.0753 0.4769,0 0.91347,-0.27219 2.44373,-1.5236 5.201403,-4.2536 10.176323,-9.03004 14.776933,-14.18741 1.16706,-1.30829 1.77765,-2.02107 1.82011,-2.12474 0.0213,-0.052 0.0401,-0.0679 0.0417,-0.0354 0.002,0.0381 0.0789,0.059 0.21694,0.059 h 0.21395 l -0.72029,0.81502 c -1.60311,1.81389 -1.83532,2.07408 -2.51741,2.82057 -4.23333,4.63305 -9.57044,9.66746 -13.986513,13.19325 -1.29312,1.03242 -1.70487,1.27142 -2.24423,1.30262 -0.34501,0.02 -0.36557,0.0148 -0.77958,-0.19596 z"
       id="path1138" />
    <path
       style="opacity:1;fill:#000000;fill-opacity:1;stroke:#00ff00;stroke-width:0.178572;stroke-linejoin:round;stroke-miterlimit:4;stroke-dasharray:none;paint-order:stroke fill markers"
       d=""
       id="path1140" />
    <path
       style="opacity:1;fill:#000000;fill-opacity:1;stroke:#00ff00;stroke-width:0.178572;stroke-linejoin:round;stroke-miterlimit:4;stroke-dasharray:none;paint-order:stroke fill markers"
       d="m 96.659127,231.02367 c -0.76391,-0.50191 -1.80382,-1.4111 -4.03903,-3.5313 -1.32019,-1.25226 -6.26681,-6.16027 -6.23241,-6.18375 0.0104,-0.007 0.18023,-0.001 0.37749,0.0127 l 0.35866,0.0255 0.83078,0.87407 c 0.81566,0.85817 3.84471,3.8504 4.96806,4.90766 0.96827,0.91131 3.20023,2.88999 3.85944,3.42146 0.11961,0.0964 0.24813,0.17534 0.28559,0.17534 0.13575,0 2.88099,-2.49586 5.061253,-4.6015 1.15538,-1.11584 3.78984,-3.79002 4.48499,-4.55261 0.28543,-0.31313 0.32689,-0.32848 0.71416,-0.26449 l 0.18014,0.0298 -0.606,0.61936 c -0.3333,0.34065 -1.36049,1.3936 -2.28263,2.33988 -2.35171,2.41328 -5.123553,5.08314 -6.391073,6.15595 -0.48377,0.40946 -1.04336,0.79387 -1.15192,0.79132 -0.0477,-0.001 -0.2356,-0.0998 -0.4175,-0.21934 z"
       id="path1142" />
    <path
       style="opacity:1;fill:#000000;fill-opacity:1;stroke:#00ff00;stroke-width:0.178572;stroke-linejoin:round;stroke-miterlimit:4;stroke-dasharray:none;paint-order:stroke fill markers"
       d="m 96.201497,242.91423 c -1.01017,-0.15889 -1.7409,-0.53896 -3.25126,-1.69106 -4.33109,-3.30375 -12.13718,-10.69289 -16.6818,-15.79079 -5.24474,-5.88326 -9.79521,-11.95778 -13.97932,-18.66128 -1.13082,-1.81173 -1.04837,-1.65241 -1.03212,-1.99435 l 0.0141,-0.29713 0.13741,0.23623 c 0.31462,0.54091 1.97531,3.18099 2.72236,4.3279 3.94069,6.04992 8.7988,12.3035 13.55712,17.45136 5.09265,5.50955 13.1994,12.98767 16.44341,15.16832 1.01626,0.68314 1.63484,0.90816 2.62221,0.9539 1.11888,0.0518 1.89975,-0.11601 2.64644,-0.56884 1.609683,-0.97618 4.938913,-3.80874 9.281623,-7.89695 1.49252,-1.40506 5.3361,-5.24713 6.54706,-6.5445 1.5489,-1.65942 4.03181,-4.4983 5.0726,-5.79986 0.27546,-0.34447 0.50796,-0.60492 0.51667,-0.57877 0.009,0.0261 0.10318,0.0475 0.20993,0.0475 0.16353,0 0.18234,0.009 0.11953,0.0591 -0.041,0.0325 -0.40007,0.45239 -0.79793,0.93313 -2.7682,3.34486 -5.27276,6.08078 -8.41303,9.19019 -5.51979,5.46554 -11.09018,10.31025 -12.773293,11.10926 -0.58227,0.27643 -0.98648,0.35633 -1.88988,0.37358 -0.44176,0.008 -0.92409,-0.004 -1.07185,-0.0269 z"
       id="path1144" />
    <path
       style="opacity:1;fill:#000000;fill-opacity:1;stroke:#00ff00;stroke-width:0.178572;stroke-linejoin:round;stroke-miterlimit:4;stroke-dasharray:none;paint-order:stroke fill markers"
       d="m 96.779187,235.04028 c -0.47356,-0.10035 -1.17618,-0.54622 -2.15168,-1.36544 -4.01498,-3.37173 -8.25042,-7.43911 -12.27165,-11.78469 l -0.5465,-0.59059 0.18428,-0.0145 c 0.10293,-0.008 0.18436,-0.0394 0.18446,-0.0709 9e-5,-0.031 0.0397,0.007 0.088,0.0854 0.19415,0.31328 2.08901,2.30109 4.32653,4.53874 2.74369,2.74387 4.16228,4.07583 6.71195,6.30214 1.8659,1.62926 2.50228,2.13122 3.04499,2.40181 0.31845,0.15879 0.38805,0.17546 0.73233,0.17546 0.62052,0 0.90364,-0.1795 2.60825,-1.65364 3.986523,-3.44756 8.136343,-7.49711 11.595873,-11.31566 l 0.44945,-0.4961 0.20798,0.015 c 0.11439,0.008 0.18663,0.0295 0.16053,0.0472 -0.0261,0.0177 -0.37586,0.39352 -0.77722,0.83507 -2.46002,2.70624 -5.66695,5.92503 -8.45465,8.4859 -1.56086,1.43385 -3.736173,3.33317 -4.339143,3.78861 -0.52927,0.39978 -0.95423,0.59835 -1.33051,0.6217 -0.16891,0.0105 -0.35938,0.008 -0.42328,-0.006 z"
       id="path1146" />
    <path
       style="opacity:1;fill:#000000;fill-opacity:1;stroke:#00ff00;stroke-width:1.01015;stroke-linejoin:round;stroke-miterlimit:4;stroke-dasharray:none;paint-order:stroke fill markers"
       d="m 83.534077,203.60805 c -6.15065,-0.70856 -11.20205,-1.32737 -11.22532,-1.37514 -0.31763,-0.65207 -1.02597,-1.94538 -1.62754,-2.97165 l -0.751,-1.28117 5.04353,0.15366 c 10.34602,0.31521 38.679253,0.41768 38.956053,0.14088 0.2557,-0.25571 9.78604,-0.41259 9.78604,-0.16109 0,0.0884 -2.06929,3.80823 -2.28957,4.11577 -0.1375,0.19196 -23.638733,2.70916 -25.105563,2.68904 -0.88199,-0.0121 -6.63597,-0.60173 -12.78663,-1.3103 z"
       id="path1148" />
    <path
       style="opacity:1;fill:#000000;fill-opacity:1;stroke:#00ff00;stroke-width:0.714285;stroke-linejoin:round;stroke-miterlimit:4;stroke-dasharray:none;paint-order:stroke fill markers"
       d="m 52.631048,165.29395 c -0.128082,-0.57232 -0.197964,-1.07308 -0.155295,-1.11279 0.04267,-0.0397 0.779201,-0.13308 1.636734,-0.20749 l 1.55915,-0.1353 0.002,0.53939 c 10e-4,0.29666 0.0548,0.8583 0.11922,1.24809 l 0.11714,0.7087 H 54.38692 52.863841 Z"
       id="path1150" />
    <path
       style="opacity:1;fill:#000000;fill-opacity:1;stroke:#00ff00;stroke-width:0.714285;stroke-linejoin:round;stroke-miterlimit:4;stroke-dasharray:none;paint-order:stroke fill markers"
       d="m 45.746079,166.09832 c -0.04747,-0.12993 -0.10859,-0.44885 -0.135811,-0.70871 -0.04807,-0.4589 -0.0044,-0.47711 1.521103,-0.63426 0.863828,-0.089 1.598253,-0.13151 1.632056,-0.0945 0.0338,0.037 0.121174,0.42874 0.194157,0.8705 l 0.132693,0.8032 h -1.628941 c -1.131126,0 -1.655321,-0.0722 -1.715257,-0.23623 z"
       id="path1152" />
    <path
       style="opacity:1;fill:#000000;fill-opacity:1;stroke:#00ff00;stroke-width:0.357143;stroke-linejoin:round;stroke-miterlimit:4;stroke-dasharray:none;paint-order:stroke fill markers"
       d=""
       id="path1154" />
    <path
       style="opacity:1;fill:#000000;fill-opacity:1;stroke:#00ff00;stroke-width:0.357143;stroke-linejoin:round;stroke-miterlimit:4;stroke-dasharray:none;paint-order:stroke fill markers"
       d=""
       id="path1156" />
    <path
       style="opacity:1;fill:#000000;fill-opacity:1;stroke:#00ff00;stroke-width:0.357143;stroke-linejoin:round;stroke-miterlimit:4;stroke-dasharray:none;paint-order:stroke fill markers"
       d=""
       id="path1158" />
    <path
       style="opacity:1;fill:#000000;fill-opacity:1;stroke:#00ff00;stroke-width:0.357143;stroke-linejoin:round;stroke-miterlimit:4;stroke-dasharray:none;paint-order:stroke fill markers"
       d=""
       id="path1160" />
    <path
       style="opacity:1;fill:#000000;fill-opacity:1;stroke:#00ff00;stroke-width:0.357143;stroke-linejoin:round;stroke-miterlimit:4;stroke-dasharray:none;paint-order:stroke fill markers"
       d="m 55.777237,163.4173 c -0.0908,-0.1094 -0.0551,-0.14221 0.19747,-0.1818 0.16954,-0.0266 9.40929,-1.06043 20.53277,-2.29747 l 20.22451,-2.24916 20.218943,2.24467 c 11.12042,1.23458 20.38005,2.26849 20.57695,2.29759 0.20495,0.0303 0.34226,0.098 0.32117,0.15836 -0.0428,0.12252 -0.17493,0.11977 -1.0099,-0.021 -1.09667,-0.18492 -9.27945,-1.12433 -24.81116,-2.84839 l -15.220023,-1.68945 -14.40387,1.59567 c -19.55755,2.1666 -25.99046,2.91428 -26.36585,3.06442 -0.0826,0.033 -0.20008,1e-5 -0.26101,-0.0734 z"
       id="path1162" />
    <path
       style="opacity:1;fill:#000000;fill-opacity:1;stroke:#00ff00;stroke-width:0.252538;stroke-linejoin:round;stroke-miterlimit:4;stroke-dasharray:none;paint-order:stroke fill markers"
       d="m 95.618927,205.35149 c -3.1054,-0.27269 -9.67502,-0.98128 -15.70986,-1.69443 -6.13437,-0.72492 -7.50634,-0.90905 -7.63396,-1.02455 -0.0615,-0.0557 -0.17541,-0.12533 -0.25311,-0.15483 -0.0875,-0.0332 -0.27439,-0.30801 -0.49089,-0.7218 -0.31185,-0.59602 -0.81013,-1.48255 -1.7642,-3.1388 -0.16884,-0.29311 -0.30699,-0.5991 -0.30699,-0.67998 0,-0.0839 -0.0502,-0.16019 -0.11693,-0.17761 -0.0819,-0.0214 -0.0684,-0.0329 0.0449,-0.0383 0.089,-0.004 0.21572,-0.0566 0.28165,-0.11624 0.10927,-0.0989 0.33145,-0.10172 2.51092,-0.0321 6.16305,0.19689 7.63267,0.21746 7.78753,0.10898 0.12972,-0.0908 1.98642,-0.10177 16.95208,-0.0997 13.454433,0.002 16.836893,0.0193 16.959213,0.0872 0.10957,0.0608 0.28561,0.0706 0.62215,0.0347 1.44069,-0.15394 7.72386,-0.24553 8.83705,-0.12883 0.43218,0.0453 0.55513,0.0853 0.69651,0.22672 0.1637,0.1637 0.16773,0.18505 0.0865,0.4592 -0.0469,0.15814 -0.48484,1.00915 -0.97328,1.89114 -1.19717,2.16178 -1.30993,2.34604 -1.5076,2.46336 -0.094,0.0558 -0.62014,0.16327 -1.16931,0.23892 -3.47127,0.47816 -17.8393,2.02004 -22.726013,2.4388 -1.16353,0.0997 -1.53677,0.10992 -2.12629,0.0582 z m 3.10701,-0.58968 c 7.932583,-0.72247 22.392363,-2.33834 22.684503,-2.53497 0.0735,-0.0495 0.32722,-0.43125 0.56382,-0.8484 0.82192,-1.44914 1.74138,-3.16013 1.74138,-3.24049 0,-0.15191 -0.74574,-0.17536 -4.37027,-0.13743 -3.49187,0.0365 -4.98376,0.10625 -5.54981,0.25933 -0.41035,0.11096 -17.409923,0.14982 -25.793813,0.059 -7.12634,-0.0772 -9.98561,-0.13006 -15.18334,-0.28052 -1.55216,-0.0449 -2.83951,-0.0643 -2.86077,-0.043 -0.0213,0.0213 0.28318,0.59046 0.67654,1.26488 0.39337,0.67442 0.92252,1.62161 1.17591,2.10487 0.35588,0.67874 0.49717,0.88781 0.62098,0.91889 0.83534,0.20965 17.62568,2.11897 22.85377,2.59882 0.73511,0.0675 1.77333,0.031 3.4411,-0.1209 z m 10.056013,-6.84443 c 1.02899,-0.0249 -2.2033,-0.0439 -7.18286,-0.0423 -4.979573,0.002 -7.956283,0.0191 -6.614933,0.0388 3.61323,0.0532 11.655533,0.0553 13.797793,0.004 z m -17.856943,-0.0534 c -0.45018,-0.0116 -1.18685,-0.0116 -1.63703,0 -0.45018,0.0116 -0.0818,0.021 0.81852,0.021 0.90036,0 1.26869,-0.009 0.81851,-0.021 z"
       id="path1164" />
    <path
       style="opacity:1;fill:#000000;fill-opacity:1;stroke:#00ff00;stroke-width:0.714285;stroke-linejoin:round;stroke-miterlimit:4;stroke-dasharray:none;paint-order:stroke fill markers"
       d="m 135.93674,199.468 0.72961,-1.34467 11.39266,-0.0266 11.39265,-0.0265 -11.24479,1.27142 c -6.18464,0.69928 -11.63966,1.31633 -12.12227,1.37122 l -0.87747,0.0998 z"
       id="path1168" />
    <path
       style="opacity:1;fill:#000000;fill-opacity:1;stroke:#00ff00;stroke-width:0.714285;stroke-linejoin:round;stroke-miterlimit:4;stroke-dasharray:none;paint-order:stroke fill markers"
       d="m 46.058801,199.44291 -11.90625,-1.37309 11.528274,-0.006 11.528272,-0.006 0.70357,1.40331 c 0.58413,1.1651 0.64829,1.39927 0.37797,1.37949 -0.17907,-0.0131 -5.683399,-0.64172 -12.231836,-1.39692 z"
       id="path1170" />
    <path
       style="opacity:1;fill:#000000;fill-opacity:1;stroke:#00ff00;stroke-width:0.252538;stroke-linejoin:round;stroke-miterlimit:4;stroke-dasharray:none;paint-order:stroke fill markers"
       d="m 38.571415,165.65636 c 3.344209,-0.37576 6.215687,-0.69859 6.38106,-0.71742 l 0.300677,-0.0342 -0.02138,0.27391 c -0.01175,0.15065 0.02072,0.47686 0.07214,0.72492 l 0.09351,0.45102 -6.453201,-0.008 -6.453203,-0.008 z"
       id="path1172" />
    <path
       style="opacity:1;fill:#000000;fill-opacity:1;stroke:#00ff00;stroke-width:0.178572;stroke-linejoin:round;stroke-miterlimit:4;stroke-dasharray:none;paint-order:stroke fill markers"
       d="m 148.1528,166.31881 c 0.19169,-0.21182 0.30084,-1.03454 0.16974,-1.2795 -0.0304,-0.0568 -0.0472,-0.11129 -0.0373,-0.12115 0.01,-0.01 3.02535,0.31926 6.70109,0.73137 l 6.68317,0.74931 -6.79909,0.005 c -6.68377,0.005 -6.7977,0.003 -6.7176,-0.085 z"
       id="path1174" />
    <path
       style="opacity:1;fill:#ffffff;fill-opacity:1;stroke:#00ff00;stroke-width:0.252538;stroke-linejoin:round;stroke-miterlimit:4;stroke-dasharray:none;paint-order:stroke fill markers"
       d="m 65.098707,201.62416 c -0.88198,-0.10386 -1.63516,-0.19052 -1.67372,-0.19259 -0.0399,-0.002 -0.0587,-0.10113 -0.0437,-0.22982 0.0298,-0.25553 -0.29827,-0.95293 -1.11467,-2.36932 -0.26144,-0.4536 -0.47536,-0.83696 -0.47536,-0.85192 0,-0.015 0.71559,-0.0272 1.5902,-0.0272 h 1.59019 l 0.0811,0.2244 c 0.10824,0.2993 1.15486,2.12254 1.70586,2.97164 l 0.44087,0.67937 -0.24859,-0.008 c -0.13672,-0.004 -0.97022,-0.0928 -1.85221,-0.19669 z"
       id="path1178" />
    <path
       style="opacity:1;fill:#ffffff;fill-opacity:1;stroke:#00ff00;stroke-width:0.252538;stroke-linejoin:round;stroke-miterlimit:4;stroke-dasharray:none;paint-order:stroke fill markers"
       d="m 126.79415,201.47792 c 0.34181,-0.45909 0.98894,-1.54182 1.45448,-2.43353 0.26712,-0.51164 0.36408,-0.76573 0.34412,-0.90173 l -0.0278,-0.18936 h 1.69227 c 0.93075,0 1.69227,0.0112 1.69227,0.0248 0,0.0137 -0.16826,0.32185 -0.37392,0.68487 -0.63957,1.12894 -1.36333,2.53781 -1.36333,2.65388 0,0.061 -0.0126,0.11091 -0.0281,0.11091 -0.0155,0 -0.82968,0.0902 -1.80938,0.20045 -0.97969,0.11025 -1.79488,0.20045 -1.81153,0.20045 -0.0166,0 0.0873,-0.15786 0.23091,-0.35079 z"
       id="path1180" />
    <path
       style="opacity:1;fill:#ffffff;fill-opacity:1;stroke:#00ff00;stroke-width:0.252538;stroke-linejoin:round;stroke-miterlimit:4;stroke-dasharray:none;paint-order:stroke fill markers"
       d="m 49.496852,166.39377 c 0,-0.10468 -0.284366,-1.58961 -0.331076,-1.72883 -0.0583,-0.17377 -0.05031,-0.18176 0.218805,-0.21872 0.282917,-0.0388 2.622638,-0.30251 2.68454,-0.30251 0.01849,0 0.03415,0.12779 0.03482,0.28397 7.94e-4,0.15619 0.08581,0.66734 0.189222,1.1359 l 0.18801,0.85192 h -1.49216 c -0.820687,0 -1.49216,-0.01 -1.49216,-0.0217 z"
       id="path1182" />
    <path
       style="opacity:1;fill:#ffffff;fill-opacity:1;stroke:#00ff00;stroke-width:0.252538;stroke-linejoin:round;stroke-miterlimit:4;stroke-dasharray:none;paint-order:stroke fill markers"
       d="m 141.15921,166.33198 c 0.13964,-0.3686 0.32491,-1.45225 0.30589,-1.78911 -0.0124,-0.21967 -0.008,-0.39884 0.0109,-0.39815 0.0184,8e-4 0.67986,0.0754 1.46998,0.16603 0.79012,0.0906 1.45591,0.16529 1.47955,0.16591 0.0236,5.3e-4 -0.0304,0.3394 -0.12007,0.75283 -0.0897,0.41343 -0.1806,0.84942 -0.20205,0.96885 l -0.039,0.21716 h -1.46839 c -1.14704,0 -1.46146,-0.0183 -1.43675,-0.0835 z"
       id="path1184" />
    <path
       style="opacity:1;fill:#ffffff;fill-opacity:1;stroke:#00ff00;stroke-width:0.252538;stroke-linejoin:round;stroke-miterlimit:4;stroke-dasharray:none;paint-order:stroke fill markers"
       d="m 43.427803,166.7974 c -12.085664,-0.0375 -12.217702,-0.0393 -12.313627,-0.17046 -0.134969,-0.18458 -0.08928,-0.38535 0.108535,-0.47691 0.210024,-0.0972 1.685396,-0.27667 8.422741,-1.02455 2.960401,-0.32861 5.43348,-0.61703 5.495729,-0.64091 0.08409,-0.0323 0.113181,-0.008 0.113181,0.0961 0,0.0902 -0.05308,0.15128 -0.150339,0.17286 -0.08269,0.0183 -2.969316,0.34866 -6.414733,0.73405 -3.445415,0.38539 -6.322431,0.73177 -6.393371,0.76973 -0.07094,0.038 -0.24371,0.0711 -0.383936,0.0737 -0.14023,0.003 -0.313992,0.0278 -0.386141,0.056 -0.274683,0.1074 1.647155,0.14164 7.789597,0.13877 4.732266,-0.002 6.36931,0.017 6.514029,0.0764 0.122192,0.0502 0.77855,0.0906 1.784371,0.10994 1.572204,0.0302 1.592953,0.0288 1.74901,-0.11779 0.103314,-0.0971 0.188526,-0.12862 0.246398,-0.0913 0.09035,0.0583 1.872358,0.13285 4.648756,0.19441 0.929499,0.0206 1.553504,0.0603 1.553504,0.0989 0,0.0355 -0.0376,0.0587 -0.0835,0.0517 -0.0459,-0.007 -5.581022,-0.0298 -12.300184,-0.0507 z"
       id="path1188" />
    <path
       style="opacity:1;fill:#ffffff;fill-opacity:1;stroke:#00ff00;stroke-width:0.252538;stroke-linejoin:round;stroke-miterlimit:4;stroke-dasharray:none;paint-order:stroke fill markers"
       d="m 36.568101,166.72944 c -2.92159,-0.0196 -5.349568,-0.06 -5.395505,-0.0897 -0.149624,-0.0968 -0.099,-0.37768 0.08037,-0.44588 0.261723,-0.0995 1.832581,-0.29731 6.651482,-0.83757 2.480596,-0.2781 5.118942,-0.57954 5.862992,-0.66985 0.744051,-0.0903 1.367957,-0.16421 1.386462,-0.16421 0.01849,0 0.03364,0.0412 0.03364,0.0916 0,0.11102 0.403238,0.0569 -5.044713,0.67697 -5.944129,0.67653 -7.092783,0.81423 -7.934563,0.95118 -1.524206,0.24796 -0.941369,0.2838 4.71995,0.2902 2.650027,0.003 5.825503,0.0358 7.056612,0.0729 4.422383,0.13317 5.210654,0.13823 5.368954,0.0345 0.119584,-0.0784 0.324559,-0.0845 1.179774,-0.0354 0.569275,0.0327 1.846877,0.0841 2.839114,0.11425 2.085537,0.0634 -8.007299,0.07 -16.804571,0.011 z"
       id="path1190" />
    <path
       style="opacity:1;fill:#ffffff;fill-opacity:1;stroke:#00ff00;stroke-width:0.252538;stroke-linejoin:round;stroke-miterlimit:4;stroke-dasharray:none;paint-order:stroke fill markers"
       d="m 49.411373,166.65638 c 0.07502,-0.0437 0.513234,-0.0465 1.269529,-0.008 l 1.15497,0.0588 -1.269529,0.008 c -0.874258,0.005 -1.233861,-0.0128 -1.15497,-0.0588 z"
       id="path1192" />
  </g>
</svg>
